<svg xmlns="http://www.w3.org/2000/svg" xmlns:xlink="http://www.w3.org/1999/xlink" viewBox="0 0 220.47 172.09"><defs><style>.cls-1{isolation:isolate;}.cls-2{fill:#dae8ef;}.cls-3{fill:#ccd9e2;}.cls-4{fill:#bcced8;}.cls-5{fill:#112b46;}.cls-26,.cls-6{mix-blend-mode:screen;}.cls-7{fill:#1d262d;}.cls-8{fill:#606bf1;}.cls-9{fill:#fbd15b;}.cls-10{fill:#ff8578;}.cls-11{fill:#f9fbfc;}.cls-12{fill:#f1f2f2;}.cls-13{fill:url(#radial-gradient);}.cls-14{fill:url(#radial-gradient-2);}.cls-15{fill:#f7b094;}.cls-16{fill:#3d3d7a;}.cls-17{fill:#0a2033;}.cls-18{fill:#30475e;}.cls-19{fill:url(#radial-gradient-3);}.cls-20{fill:#56548c;}.cls-21{fill:url(#radial-gradient-4);}.cls-22{fill:#f4675d;}.cls-23{fill:url(#radial-gradient-5);}.cls-24{fill:#e8987c;}.cls-25{fill:url(#radial-gradient-6);}.cls-26{fill:#6d4b35;}.cls-27{fill:#abb5ba;}.cls-28{fill:#8495a0;}.cls-29{fill:none;}.cls-30{fill:#141b56;}.cls-31{fill:#a5b7c6;}.cls-32{fill:url(#linear-gradient);}.cls-33{fill:#747ded;}.cls-34{fill:url(#linear-gradient-2);}.cls-35{fill:url(#linear-gradient-3);}.cls-36{fill:#95a8b5;}</style><radialGradient id="radial-gradient" cx="125.25" cy="56.92" r="6.53" gradientUnits="userSpaceOnUse"><stop offset="0" stop-color="#ffc8af"/><stop offset="1" stop-color="#ffbb9c"/></radialGradient><radialGradient id="radial-gradient-2" cx="151.61" cy="19.06" r="10.3" gradientTransform="translate(-30.76 58.37) rotate(-12.15)" xlink:href="#radial-gradient"/><radialGradient id="radial-gradient-3" cx="111.32" cy="155.58" r="4.11" xlink:href="#radial-gradient"/><radialGradient id="radial-gradient-4" cx="85.3" cy="156.61" r="3.74" xlink:href="#radial-gradient"/><radialGradient id="radial-gradient-5" cx="108.08" cy="86.4" r="20.95" xlink:href="#radial-gradient"/><radialGradient id="radial-gradient-6" cx="108.08" cy="86.4" r="20.95" xlink:href="#radial-gradient"/><linearGradient id="linear-gradient" x1="417.99" y1="-180.46" x2="398.11" y2="-155.4" gradientTransform="matrix(0.78, -0.62, 0.62, 0.78, -36.29, 511.86)" gradientUnits="userSpaceOnUse"><stop offset="0" stop-color="#606bf1"/><stop offset="1" stop-color="#58479f"/></linearGradient><linearGradient id="linear-gradient-2" x1="638.36" y1="-275.09" x2="618.48" y2="-250.02" gradientTransform="matrix(0.45, -0.89, 0.89, 0.45, 113.66, 807.27)" xlink:href="#linear-gradient"/><linearGradient id="linear-gradient-3" x1="543.07" y1="-249.12" x2="518.46" y2="-218.09" gradientTransform="translate(32.32 686.56) rotate(-52.61)" xlink:href="#linear-gradient"/></defs><title>coding2</title><g class="cls-1"><g id="Layer_2" data-name="Layer 2"><g id="BACKGROUND"><path class="cls-2" d="M220.36,113.64l-8,56H9.73l-6-42.69a10.61,10.61,0,0,1,6.44-11.27l18-7.47V90.28a10.58,10.58,0,0,1,9.07-10.49l4.25-.63L48.65,55a10.6,10.6,0,0,1,10.17-7.6h73.07a10.6,10.6,0,0,1,10.58,9.83l34.79,3.68a10.61,10.61,0,0,1,9.48,9.93L188.15,95l24.59,6.94A10.62,10.62,0,0,1,220.36,113.64Z"/><path class="cls-3" d="M21.88,125.18l6.33,44.42H189.07l4.75-33.89a8.42,8.42,0,0,0-5.11-8.94l-14.28-5.93v-14.2a8.41,8.41,0,0,0-7.2-8.33l-3.38-.49-5.67-19.18a8.4,8.4,0,0,0-8.07-6h-58a8.4,8.4,0,0,0-8.4,7.81L56.09,83.33a8.43,8.43,0,0,0-7.52,7.89l-1.12,19.16-19.52,5.51A8.42,8.42,0,0,0,21.88,125.18Z"/><path class="cls-4" d="M154.59,153.05a9.63,9.63,0,0,0-8.24-9.54l-3.86-.56L136,121a9.63,9.63,0,0,0-9.24-6.9H60.37A9.62,9.62,0,0,0,50.76,123l-28.74,3,6.2,43.53h127.1l-.73-.3Z"/></g><g id="OBJECTS"><rect class="cls-5" x="45.74" y="9.78" width="49.31" height="46.03"/><g class="cls-6"><rect class="cls-7" x="45.74" y="9.78" width="49.31" height="4.87"/></g><path class="cls-8" d="M84.39,12.27a.89.89,0,1,1-.89-.9A.89.89,0,0,1,84.39,12.27Z"/><path class="cls-9" d="M88.12,12.27a.9.9,0,1,1-.89-.9A.89.89,0,0,1,88.12,12.27Z"/><path class="cls-10" d="M91.58,12.36a.9.9,0,1,1-.89-.89A.89.89,0,0,1,91.58,12.36Z"/><rect class="cls-10" x="54.51" y="19.17" width="6.98" height="0.59"/><rect class="cls-9" x="62.71" y="19.17" width="6.98" height="0.59"/><rect class="cls-8" x="56.67" y="22.33" width="10.83" height="0.59"/><rect class="cls-10" x="69.29" y="22.33" width="5.51" height="0.59"/><rect class="cls-9" x="60.43" y="25.5" width="4.76" height="0.59"/><rect class="cls-9" x="67.93" y="25.5" width="15.78" height="0.59"/><rect class="cls-8" x="64.12" y="28.66" width="18.03" height="0.59"/><rect class="cls-10" x="59.61" y="31.82" width="5.55" height="0.59"/><rect class="cls-8" x="67.54" y="31.82" width="5.55" height="0.59"/><rect class="cls-10" x="54.51" y="48.23" width="8.07" height="0.59"/><rect class="cls-9" x="65.41" y="48.23" width="8.07" height="0.59"/><rect class="cls-10" x="76.02" y="48.23" width="8.07" height="0.59"/><rect class="cls-8" x="56.67" y="45.06" width="15.78" height="0.59"/><rect class="cls-10" x="74.91" y="45.06" width="15.78" height="0.59"/><rect class="cls-10" x="60.43" y="41.9" width="15.66" height="0.59"/><rect class="cls-9" x="77.45" y="41.9" width="4.36" height="0.59"/><rect class="cls-9" x="59.4" y="38.74" width="5.89" height="0.59"/><rect class="cls-8" x="68.43" y="38.74" width="5.89" height="0.59"/><rect class="cls-10" x="78.12" y="38.74" width="5.89" height="0.59"/><rect class="cls-9" x="66.24" y="35.58" width="8.27" height="0.59"/><rect class="cls-8" x="54.85" y="35.58" width="8.27" height="0.59"/><rect class="cls-11" x="49.94" y="18.61" width="0.75" height="0.75"/><path class="cls-11" d="M50.69,46.18h-.75V44.64h.75Zm0-3.83h-.75V40.81h.75Zm0-3.84h-.75V37h.75Zm0-3.83h-.75V33.15h.75Zm0-3.83h-.75V29.32h.75Zm0-3.83h-.75V25.49h.75Zm0-3.83h-.75V21.66h.75Z"/><rect class="cls-11" x="49.94" y="48.48" width="0.75" height="0.75"/><rect class="cls-10" x="105.66" width="40.61" height="25.03"/><path class="cls-11" d="M121.43,10.07l-4.83,2.06,4.83,2-.63,1.46L115,13V11.24l5.79-2.6Z"/><path class="cls-11" d="M128.55,5.3l-3.5,13.47-1.67-.4L126.9,4.92Z"/><path class="cls-11" d="M136.94,11.24V13l-5.8,2.59-.63-1.46,4.82-2-4.82-2.06.63-1.43Z"/><rect class="cls-8" x="144.87" y="48.49" width="23.13" height="16.48"/><path class="cls-12" d="M154.55,52.05c-.74,0-1,.2-1,.75v2.48a1.26,1.26,0,0,1-1.08,1.45,1.25,1.25,0,0,1,1.08,1.43v2.48c0,.56.26.76,1,.76v1.09c-1.88,0-2.41-.61-2.41-1.86V58.28c0-.67-.18-.93-.79-.93V56.11c.61,0,.79-.27.79-1V52.81c0-1.26.53-1.85,2.41-1.85Z"/><path class="cls-12" d="M160.74,52.81v2.35c0,.68.17,1,.8,1v1.24c-.63,0-.8.26-.8.93v2.35c0,1.25-.53,1.86-2.41,1.86V61.4c.73,0,1-.2,1-.76V58.16a1.25,1.25,0,0,1,1.07-1.43,1.26,1.26,0,0,1-1.07-1.45V52.8c0-.55-.25-.75-1-.75V51C160.21,51,160.74,51.55,160.74,52.81Z"/><rect class="cls-9" x="30.05" y="3.59" width="25.95" height="17.35"/><path class="cls-11" d="M38.63,8.57a4.26,4.26,0,0,0,5.7,6.19l2.72,2.73a.31.31,0,0,0,.42,0l.77-.77a.31.31,0,0,0,0-.42l-2.73-2.72a4.26,4.26,0,0,0-6.88-5Zm5.47,4.78a3,3,0,1,1,0-4.26A3,3,0,0,1,44.1,13.35Z"/><path class="cls-13" d="M131.47,57.19c-.06.58-.84,6.56-7,6.56-6.46,0-5.37-6.39-5.37-6.39v0a6.42,6.42,0,0,1,2-.1v-3l7.34-4.1h.26v7.06A14.09,14.09,0,0,1,131.47,57.19Z"/><path class="cls-14" d="M127.91,36.57a8.38,8.38,0,0,1,2.2,4.08c.71,3.11,0,6.4-.86,9.39a4.77,4.77,0,0,1-.64,1.46,5.17,5.17,0,0,1-.81.81l-3.91,3.42c-.88.77-6.31,1.41-7.35.67-4-2.86-4.76-11.13-4-15.36C113.9,34,122.92,31.51,127.91,36.57Z"/><path class="cls-15" d="M125.66,45.55c.06-.68.75-1.42,1.45-1s.55,1.65.25,2.32c-.23.51-1,1.08-1.55.6s.25-.88.27-1.25-.64-.57-.37-.92"/><path class="cls-15" d="M125.79,48.67a2.06,2.06,0,0,0,2.27-1.35,7.44,7.44,0,0,0,.28-2.17,5.15,5.15,0,0,1,.18,2.39c-.19,1.48-.71,2.89-1.86,2.91S125.79,48.67,125.79,48.67Z"/><path class="cls-16" d="M124.9,47.62l-.08,0c-.45.06-.63-.49-.7-.83a14.94,14.94,0,0,1-.16-2.41,2,2,0,0,0-.07-.64c-.26-.58-.93-1-1.14-1.56s.44-1.39.17-2.15c-.41-1.17-1.91-1.44-3-1.43a34.25,34.25,0,0,0-4.82.57c-1.69.27-3.86.52-5.35-.56-1.81-1.29-2.56-4.66-1.21-6.5a4.35,4.35,0,0,1,3.34-1.57c1.29,0,2.38.74,3.56,1.13.94.3,1.85-.6,2.74-.77,1.1-.22,1.57,1,2.55,1s1.89-.71,2.82-.88c1.84-.34,1.73,1.51,3,2.15.77.39,1.76.15,2.54.55.59.31.68.84.81,1.44a12.33,12.33,0,0,0,.29,1.63,3.72,3.72,0,0,0,.82,1.08,3.85,3.85,0,0,1,.68,1.3,8.06,8.06,0,0,1,.34,3.31A22.44,22.44,0,0,1,130.62,48a19.84,19.84,0,0,1-1.18,3.4c-.16.29-.91,1.14-1.18.51a.93.93,0,0,1,0-.44c.08-1.17,1.17-8.74-1.69-7.83a2,2,0,0,0-1.23,1.26,4.78,4.78,0,0,0-.25,2.09v.31A.35.35,0,0,1,124.9,47.62Z"/><path class="cls-15" d="M121.11,56.53a9.9,9.9,0,0,0,5.41-3.1,5.94,5.94,0,0,1-5.6,4.57Z"/><path class="cls-17" d="M128.09,115.65h1.41a1.63,1.63,0,0,1,1.63,1.63v43.94a0,0,0,0,1,0,0h-4.66a0,0,0,0,1,0,0V117.28a1.63,1.63,0,0,1,1.63-1.63Z" transform="translate(257.59 276.88) rotate(180)"/><path class="cls-18" d="M119.84,116.29h17.91a3.87,3.87,0,0,1,3.87,3.87v0a0,0,0,0,1,0,0H116a0,0,0,0,1,0,0v0A3.87,3.87,0,0,1,119.84,116.29Z" transform="translate(257.59 236.48) rotate(180)"/><path class="cls-17" d="M128.09,155.92h1.41a1.63,1.63,0,0,1,1.63,1.63v9.57a0,0,0,0,1,0,0h-4.66a0,0,0,0,1,0,0v-9.57A1.63,1.63,0,0,1,128.09,155.92Z" transform="translate(257.59 323.03) rotate(180)"/><path class="cls-17" d="M104.59,164.38a2.73,2.73,0,1,0,2.73-2.73A2.73,2.73,0,0,0,104.59,164.38Z"/><path class="cls-17" d="M147.54,164.38a2.73,2.73,0,1,0,2.73-2.73A2.73,2.73,0,0,0,147.54,164.38Z"/><rect class="cls-18" x="124.1" y="152.44" width="9.38" height="8.2" transform="translate(257.59 313.09) rotate(180)"/><path class="cls-9" d="M104.59,158.71H153a0,0,0,0,1,0,0v0a3.84,3.84,0,0,1-3.84,3.84H108.43a3.84,3.84,0,0,1-3.84-3.84v0A0,0,0,0,1,104.59,158.71Z" transform="translate(257.59 321.28) rotate(180)"/><rect class="cls-18" x="127.18" y="121.11" width="1.62" height="30.61"/><path class="cls-9" d="M147.12,83.22a1.91,1.91,0,0,0-2,2c.32,5.55-.85,19.1-6,23.73-6.32,5.65-24.26,4.88-24.26,4.88s-3,3.64,3,4.44,22.61.27,26.65-3.5,6.23-13.2,4.48-29.84a1.92,1.92,0,0,0-1.84-1.72Z"/><polygon class="cls-19" points="113.52 151.71 115.66 156.57 109.12 159.44 106.98 154.56 113.52 151.71"/><path class="cls-20" d="M144.33,97.67c-.4.81-29.43,0-32.17.27,0,0-17.77,8.48-20.32,16.42a8.67,8.67,0,0,0-.25,3.12C92.3,128.65,105,155.42,105,155.42l2-.86,6.54-2.85.93-.4s-10.09-30.09-8.07-31.7,24.89-5.66,32.83-7.8S144.33,97.67,144.33,97.67Z"/><polygon class="cls-21" points="88.61 152.96 89.12 160.27 81.99 160.27 81.48 152.95 88.61 152.96"/><path class="cls-16" d="M112,97.69l-.26.11S82,102,77.16,110.32c-3.15,5.43,3,45.08,3,45.08l10.52,0s-1.57-33-1-34.88a4.68,4.68,0,0,1,2-3.07,8.67,8.67,0,0,1,.25-3.12c2.55-7.94,20.32-16.42,20.32-16.42A.49.49,0,0,1,112,97.69Z"/><path class="cls-10" d="M140.74,70.21l-2,.27a99.39,99.39,0,0,1-1.67,10.76l-24.85,9.43-.34,1.8-.31,0c0,.37,0,.73,0,1.07a17.81,17.81,0,0,0,.42,4.17.48.48,0,0,0,.14.25c.68.55,9.46-.52,19,3,8.24,3,12.86,6.33,13.07,5.89C146.79,101.41,142.08,80.28,140.74,70.21Z"/><path class="cls-22" d="M138.15,82.53c-.66,3.18-2.37,9.51-5.73,10.36C128,94,119.55,94,111.6,93.52c0-.34,0-.7,0-1.07l.31,0,.34-1.8,24.85-9.43a99.39,99.39,0,0,0,1.67-10.76.62.62,0,0,0,0,.09A54.2,54.2,0,0,1,138.15,82.53Z"/><path class="cls-22" d="M113.24,62.27c-.44.8-1.08,9.45-1.43,18l-5.08-4.74C108.89,71.38,113.24,62.27,113.24,62.27Z"/><path class="cls-15" d="M110.2,86.56c-4.29.74-8.23,1.38-8.23,1.38v.21c-4.78-3.81-12-14.61-12-14.61s2.18-2.61,2.72-3.29c.08-.11,11.92,8,12.52,8a11.39,11.39,0,0,0,1.57-2.67l5.08,4.74c-.08,2-.14,4.08-.19,6Z"/><path class="cls-23" d="M102,87.94l-.11,3.54H88.94s1.28-5,4.78-5,4.85,1.85,4.85,1.85Z"/><path class="cls-15" d="M92.54,70.17l.1.08c-.54.68-2.72,3.29-2.72,3.29l-1.35-1a3.36,3.36,0,0,1-3.21,0c-1.8-1-.69-3.31-.59-3.59-.35.1-2.51,1.84-2.85,1.66s-.59-.8,1.83-3.18,5.68.67,5.78.67Z"/><path class="cls-15" d="M85.64,72.14a1,1,0,0,0,.41,1.4,9.35,9.35,0,0,0,3.5.66c.77-.08,1.38-1.16,1.38-1.16l-2.34-2.2H86.72Z"/><path class="cls-24" d="M85.5,72.62c.14-.48,1.47-.22,2.3-.2.6,0,.94-.15,1.12-.61s-.69-1.2-.86-1,.32.56.33.87-.87.4-1.55.4a16.2,16.2,0,0,0-1.85.18Z"/><path class="cls-25" d="M135.81,85.83l-12.65-4.49c-.92,1.72-1.91,3-2.89,3.27-1.47.39-5,1.06-8.65,1.69l-1.42.26c-4.29.74-8.23,1.38-8.23,1.38v.35l-.1,3.19v.81a89.44,89.44,0,0,1,9.72.16c7.58.54,17.36.86,20.6-.66,1.52-.72,2.73-3.08,3.68-6Z"/><polygon class="cls-15" points="123.16 81.34 135.81 85.83 135.24 87.52 122.72 82.14 123.16 81.34"/><path class="cls-10" d="M123.16,81.34c-.92,1.72-1.91,3-2.89,3.27-1.47.39-5,1.06-8.65,1.69,0-1.93.11-4,.19-6,.35-8.57,1-17.22,1.43-18,.73-1.35,2.71-4.28,5.85-5v0s-1.09,6.39,5.37,6.39c6.16,0,6.94-6,7-6.56,3.16.36,8,1.94,8.69,8.31.14,1.26.33,2.87.58,4.71l-2,.27a83.9,83.9,0,0,1-2.88,15.32l-.05,0Z"/><polygon class="cls-26" points="123.03 80.18 128.08 67.94 124.36 80.67 123.03 80.18"/><path class="cls-10" d="M131.47,57.19h-2.76s-3.91,4.31-6.43,4.31-1.17-4.28-1.17-4.28h-1.22A7,7,0,0,0,113,63.38c0,.4-.08.78-.12,1.13-.27,2.6,10.28,4.49,10.28,4.49l5.43-.3,3.29-6.43.66-2.64Z"/><path class="cls-12" d="M98.24,165a2.13,2.13,0,0,0,2.47,2l17.54-3.27a.81.81,0,0,0,.65-1l-.29-1.56s-18.44,3.23-20.38,3.77Z"/><path class="cls-16" d="M103.45,160.62c.19-.16.36-.32.55-.47.35-.32.69-.63,1-.92l.51-.47.9-.79.53-.49.72-.64a.38.38,0,0,1,.52,0c.72.6,3.05,2,7.28-.62a.4.4,0,0,1,.57.15l2.55,4.9s-18.44,3.23-20.38,3.77C98.86,164.63,101.22,162.59,103.45,160.62Z"/><path class="cls-12" d="M70.61,164.86c0,1.34.78,2.41,2.12,2.38l17.84-.44a.82.82,0,0,0,.8-.83l0-1.59s-18.73.25-20.73.47Z"/><path class="cls-16" d="M76.47,161.34l.61-.39,1.16-.74.58-.37,1-.65.61-.4.81-.52a.41.41,0,0,1,.52.08c.61.71,2.69,2.45,7.28.54a.41.41,0,0,1,.54.24l1.74,5.25s-18.73.25-20.73.47C71.3,164.56,74,162.93,76.47,161.34Z"/><polygon class="cls-27" points="57.92 92.29 48.39 66.88 75.52 66.88 85.04 92.29 57.92 92.29"/><polygon class="cls-28" points="86.72 92.29 85.04 92.29 75.52 66.88 77.04 66.95 85.85 89.95 86.72 92.29"/><polyline class="cls-29" points="49.85 89.54 49.99 89.54 84 89.54"/><path class="cls-28" d="M86.19,92.29h17.92l0-1.6H85.83"/><rect class="cls-28" x="158.23" y="97.13" width="4.31" height="70.89"/><rect class="cls-27" x="134.81" y="97.13" width="4.31" height="70.89"/><rect class="cls-28" x="59.77" y="97.13" width="4.31" height="70.89"/><rect class="cls-27" x="36.35" y="97.13" width="4.31" height="70.89"/><rect class="cls-30" x="30.12" y="92.29" width="138.84" height="5.11" rx="2.54"/><polygon class="cls-28" points="52.92 69.55 53.39 70.79 58.79 70.79 58.33 69.55 52.92 69.55"/><polygon class="cls-24" points="106.73 75.55 106.34 76.3 111.81 81.95 111.81 80.29 106.73 75.55"/><rect class="cls-31" y="167.11" width="218.33" height="4.99"/><path class="cls-32" d="M183.71,130.13c-.86,4.21-.6,11.38-6.17,12.52-1.5.3-2.95-.74-3.82-1.93-1.14-1.56-1.41-4.86-1.39-6.74a47,47,0,0,1,.69-4.67c.18-1.63.32-3.27.51-4.89a17.61,17.61,0,0,1,8.94-13.72,27.46,27.46,0,0,0,2.12,5.41,18.91,18.91,0,0,1,.94,2.61c.42,1.57-.09,3.15-.47,4.65C184.49,125.58,184.18,127.89,183.71,130.13Z"/><path class="cls-33" d="M176.6,142.79c0-.36.08-.71.13-1.06a4.46,4.46,0,0,0,1.91-.67,10.11,10.11,0,0,0,2.52-2s0-.11-.07-.07a11.66,11.66,0,0,1-2.45,1.67,6.56,6.56,0,0,1-1.86.69c.06-.42.12-.84.19-1.26a5.4,5.4,0,0,0,1.92-.88,23.14,23.14,0,0,0,2.74-2.1s0,0,0,0c-1.36,1-2.88,2.39-4.6,2.7.09-.53.19-1.05.3-1.57l0-.09c2-.5,3.33-2.06,4.86-3.32,0,0,0-.06,0,0-1.5,1.16-2.91,2.49-4.77,3.06.17-.75.33-1.49.5-2.23a10.69,10.69,0,0,0,4.5-3.19s0-.06,0,0A13.62,13.62,0,0,1,178,135.3c.17-.74.33-1.47.49-2.21a15.48,15.48,0,0,0,2.32-1.12,6.16,6.16,0,0,0,1.8-1.83s0-.07-.06,0c-1,1.45-2.52,1.9-4,2.67q.21-1,.39-2.07c1.64-.9,3.42-1.74,4.34-3.46,0,0,0,0,0,0-1,1.59-2.7,2.27-4.26,3.13L179,130c.1-.64.2-1.28.29-1.93a14.5,14.5,0,0,0,2.68-1.46,5.11,5.11,0,0,0,1.64-1.39,0,0,0,0,0-.06,0c-.88,1.26-2.8,2-4.22,2.61.09-.65.18-1.3.28-1.94,1.57-1,3.42-1.48,4.39-3.2,0,0,0-.1-.07,0-1,1.57-2.78,2-4.28,2.94l.18-1.21a9.41,9.41,0,0,0,4.57-3.58.08.08,0,0,0-.13-.08,9.56,9.56,0,0,1-4.39,3.35c.1-.66.2-1.31.32-2a.08.08,0,0,0,0-.05,10.15,10.15,0,0,0,2.18-1.17,5.93,5.93,0,0,0,2.05-1.87.08.08,0,0,0-.14-.08c-.76,1.35-2.55,2.25-4,2.77,0-.24.08-.48.13-.71l.21-1.06c.61-.42,1.38-.62,2-1.07a10.67,10.67,0,0,0,1.45-1.32c.05,0,0-.11-.07-.07a10,10,0,0,1-2,1.54c-.42.22-.89.35-1.3.59.12-.57.24-1.15.35-1.73h0a.11.11,0,0,0,.1,0,4.53,4.53,0,0,0,2-1.53s0,0,0,0a5.45,5.45,0,0,1-2,1.37h-.07c.09-.47.18-.94.26-1.41a.11.11,0,0,0,.1-.12,9.13,9.13,0,0,0,1.2-1,0,0,0,1,0,0,0,7.14,7.14,0,0,1-1.21.85,26.62,26.62,0,0,0,.33-2.95c0-.09-.13-.09-.14,0-.09.95-.22,1.9-.39,2.84a9.26,9.26,0,0,1-1.24-1.9s-.07,0-.06,0a5.44,5.44,0,0,0,.61,1.17,6.1,6.1,0,0,0,.64,1c-.1.51-.19,1-.3,1.52a2.83,2.83,0,0,1-1.52-.6,2.73,2.73,0,0,1-.93-1.9c0-.09-.15-.09-.14,0a3.11,3.11,0,0,0,.8,1.85,3,3,0,0,0,1.75.85c-.12.58-.25,1.16-.38,1.74a12.19,12.19,0,0,1-1.42-1.06,18.3,18.3,0,0,1-1.8-1.94c-.06-.06-.17,0-.11.1a21.41,21.41,0,0,0,1.68,1.89,9.6,9.6,0,0,0,1.61,1.22l0,.09,0,0a.09.09,0,0,0,0,.13c-.13.55-.25,1.11-.37,1.67a.36.36,0,0,1,0,.1c-1.29-.59-3.23-1.62-3.4-3.12,0-.15-.23-.11-.2,0,.39,1.7,2.26,2.45,3.54,3.38-.12.63-.24,1.26-.35,1.89a7.48,7.48,0,0,1-2.33-1.2,5.31,5.31,0,0,1-1.83-1.91s0,0,0,0a5.19,5.19,0,0,0,1.67,1.85,6.18,6.18,0,0,0,2.48,1.53.19.19,0,0,0,0,.08c-.06.4-.13.8-.19,1.21a7.21,7.21,0,0,1-4.57-2.51s0,0,0,0a5.19,5.19,0,0,0,2.31,1.9,6.27,6.27,0,0,0,2.24.8l-.33,2.24c-.69-.26-1.41-.38-2.08-.65a5.08,5.08,0,0,1-2.36-2c0-.05-.13,0-.09,0,1.08,1.73,2.65,2.24,4.49,2.89-.1.61-.19,1.22-.29,1.83a6.66,6.66,0,0,1-4.21-2.51.09.09,0,0,0-.15.08,5,5,0,0,0,2.15,1.79,6.73,6.73,0,0,0,2.17.87v.06c-.15.88-.32,1.75-.51,2.62-1.68-.42-2.76-1.67-4-2.83-.08-.08-.22,0-.13.13,1.24,1.22,2.33,2.5,4.06,2.95-.16.71-.32,1.42-.49,2.12a7.71,7.71,0,0,1-3.77-2.58c-.07-.08-.18,0-.12.11a8.29,8.29,0,0,0,3.82,2.74l-.57,2.27a5.58,5.58,0,0,1-3.5-2.31s-.07,0,0,0c.8,1.12,2,2.41,3.48,2.54-.06.24-.13.48-.19.72l-.12.44a8.18,8.18,0,0,1-3-1.47,0,0,0,1,0,0,0,7.73,7.73,0,0,0,3,1.65c-.12.46-.25.92-.38,1.4a5.74,5.74,0,0,0-.84-.36,6.53,6.53,0,0,1-1.38-.8s-.1,0,0,.06a6.41,6.41,0,0,0,1.19.81c.36.13.69.3,1,.46a15,15,0,0,0-.71,5.68c.05.4.72.51.83.08A32.21,32.21,0,0,0,176.6,142.79Z"/><path class="cls-34" d="M166.1,128.93c1,4.18,4.25,10.57-.32,13.95-1.23.91-3,.58-4.27-.14-1.7-.93-3.34-3.8-4.11-5.52-.62-1.36-.86-3.09-1.35-4.53s-1.09-3.09-1.6-4.65a17.61,17.61,0,0,1,2.31-16.2,27.59,27.59,0,0,0,4.21,4,19.18,19.18,0,0,1,1.95,2c1.05,1.24,1.25,2.89,1.54,4.41C164.88,124.47,165.57,126.7,166.1,128.93Z"/><path class="cls-33" d="M165,143.4c-.12-.33-.23-.67-.33-1a4.47,4.47,0,0,0,1.45-1.42,9.86,9.86,0,0,0,1.44-2.86c0-.06-.07-.09-.09,0a11.61,11.61,0,0,1-1.52,2.56,6.86,6.86,0,0,1-1.39,1.41c-.13-.41-.24-.82-.36-1.23a5.28,5.28,0,0,0,1.36-1.61,20.7,20.7,0,0,0,1.6-3.06s0,0,0,0c-.82,1.46-1.6,3.38-3,4.38-.14-.51-.27-1-.39-1.55l0-.08c1.59-1.3,2.15-3.28,3-5.07,0,0,0,0,0,0-.87,1.69-1.59,3.49-3,4.78-.17-.74-.33-1.48-.49-2.23a10.59,10.59,0,0,0,2.73-4.79s0,0-.05,0a13.65,13.65,0,0,1-2.75,4.48c-.16-.73-.32-1.47-.49-2.2a16.36,16.36,0,0,0,1.63-2,6.34,6.34,0,0,0,.86-2.41,0,0,0,1,0-.07,0c-.3,1.73-1.49,2.78-2.49,4.09-.17-.68-.33-1.36-.52-2,1.1-1.5,2.36-3,2.48-5,0,0,0,0,0,0-.22,1.85-1.48,3.19-2.53,4.63,0-.12-.07-.24-.1-.36-.18-.62-.37-1.24-.56-1.87a15.56,15.56,0,0,0,1.82-2.45,5,5,0,0,0,.89-2,0,0,0,0,0-.07,0c-.26,1.51-1.7,3-2.72,4.15l-.57-1.88c1-1.53,2.48-2.79,2.64-4.75,0-.06-.09-.07-.09,0-.25,1.85-1.65,3-2.64,4.48-.12-.39-.23-.78-.35-1.17a9.56,9.56,0,0,0,2.64-5.18.08.08,0,0,0-.15,0,9.56,9.56,0,0,1-2.58,4.89c-.18-.64-.36-1.27-.53-1.91V123a9.83,9.83,0,0,0,1.48-2,6,6,0,0,0,1.07-2.56c0-.1-.16-.11-.16,0-.12,1.54-1.36,3.12-2.49,4.21l-.18-.7c-.09-.35-.17-.7-.25-1,.37-.64,1-1.15,1.35-1.8a12,12,0,0,0,.76-1.81.05.05,0,0,0-.1,0,9.34,9.34,0,0,1-1.16,2.24c-.29.38-.67.69-.93,1.09-.14-.58-.27-1.15-.41-1.72v0h0a.1.1,0,0,0,.08-.07,4.48,4.48,0,0,0,1.18-2.23s0,0,0,0a5.66,5.66,0,0,1-1.26,2.09h0l-.06,0c-.12-.47-.24-.93-.37-1.4a.1.1,0,0,0,0-.15,8.61,8.61,0,0,0,.66-1.45s0-.05-.06,0a7,7,0,0,1-.73,1.28,28.13,28.13,0,0,0-1-2.81c0-.08-.16,0-.13.06.33.9.6,1.82.85,2.74a8.82,8.82,0,0,1-1.93-1.2s-.07,0-.05,0a5.45,5.45,0,0,0,1.05.81,7.37,7.37,0,0,0,1,.67c.13.49.26,1,.37,1.49a2.6,2.6,0,0,1-3.27-1.22c-.05-.08-.18,0-.13.06a3.15,3.15,0,0,0,1.51,1.33,3,3,0,0,0,1.94,0c.14.58.27,1.15.4,1.73a14.1,14.1,0,0,1-1.74-.35,18.82,18.82,0,0,1-2.45-1,.08.08,0,0,0-.06.14,21.62,21.62,0,0,0,2.32,1,9.35,9.35,0,0,0,2,.43l0,.09v0a.09.09,0,0,0,0,.12c.12.56.24,1.11.37,1.66l0,.11c-1.43,0-3.61-.11-4.4-1.4a.1.1,0,1,0-.16.12c1.06,1.38,3.07,1.28,4.63,1.57.15.63.31,1.25.48,1.87a7.69,7.69,0,0,1-2.62-.11,5.29,5.29,0,0,1-2.46-1,0,0,0,0,0,0,0,5.16,5.16,0,0,0,2.29,1,6.23,6.23,0,0,0,2.89.34s0,0,0,.08c.11.39.22.78.34,1.17a7.21,7.21,0,0,1-5.21-.34s0,0,0,0a5.21,5.21,0,0,0,2.89.75,6.57,6.57,0,0,0,2.38-.22c.21.73.42,1.45.64,2.17-.73.06-1.43.25-2.16.29a5.11,5.11,0,0,1-3-.83s-.12.05-.06.08c1.72,1.11,3.35.91,5.29.73l.51,1.78a6.63,6.63,0,0,1-4.87-.5.09.09,0,1,0-.1.14,4.88,4.88,0,0,0,2.7.71,6.55,6.55,0,0,0,2.33-.13l0,.06c.23.86.45,1.72.64,2.59-1.7.33-3.2-.34-4.8-.88-.11,0-.18.13-.07.17,1.65.58,3.18,1.29,4.93,1,.16.7.31,1.41.45,2.12a7.8,7.8,0,0,1-4.5-.74c-.1-.05-.15.1-.06.15a8.32,8.32,0,0,0,4.62.87c.15.76.29,1.53.43,2.29a5.53,5.53,0,0,1-4.14-.61s-.06,0,0,.05c1.2.68,2.84,1.34,4.22.84,0,.25.1.49.14.73s.05.3.08.45a8.37,8.37,0,0,1-3.38,0s0,0,0,.05a8,8,0,0,0,3.43.22c.08.46.16.94.24,1.42a7,7,0,0,0-.91,0,6.15,6.15,0,0,1-1.6-.14s-.07.07,0,.08a6.37,6.37,0,0,0,1.43.23c.38,0,.76,0,1.13,0a15.24,15.24,0,0,0,1.76,5.46c.21.34.87.15.78-.28A33.61,33.61,0,0,0,165,143.4Z"/><path class="cls-35" d="M175.74,125.69c.24,5.31,2.73,13.83-3.61,16.88-1.71.82-3.76,0-5.16-1.15-1.84-1.52-3.17-5.4-3.72-7.67-.44-1.8-.33-3.95-.59-5.81s-.6-4-.87-6a21.82,21.82,0,0,1,6.56-19.17,34.39,34.39,0,0,0,4.19,5.84,23.8,23.8,0,0,1,1.92,2.86c1,1.75.85,3.8.84,5.71C175.3,120,175.62,122.86,175.74,125.69Z"/><path class="cls-33" d="M171,143c-.06-.44-.11-.87-.16-1.31a5.6,5.6,0,0,0,2.09-1.39,12.42,12.42,0,0,0,2.42-3.15c0-.06-.07-.12-.11-.06a14.14,14.14,0,0,1-2.43,2.75,8.44,8.44,0,0,1-2,1.4c-.06-.53-.11-1.05-.15-1.58a6.52,6.52,0,0,0,2-1.64,26.69,26.69,0,0,0,2.66-3.34s0,0,0,0c-1.33,1.6-2.72,3.74-4.69,4.63-.05-.66-.1-1.31-.12-2v-.11c2.23-1.2,3.37-3.48,4.82-5.46a0,0,0,0,0,0,0c-1.44,1.85-2.73,3.87-4.79,5.11,0-.94-.06-1.88-.08-2.82a13.12,13.12,0,0,0,4.43-5.19s0-.07-.05,0a16.84,16.84,0,0,1-4.39,4.81c0-.93,0-1.86-.08-2.79a19.91,19.91,0,0,0,2.44-2.05,7.75,7.75,0,0,0,1.61-2.74c0-.05-.06-.08-.08,0-.77,2-2.46,3-4,4.41,0-.87-.09-1.74-.15-2.6,1.69-1.58,3.57-3.12,4.16-5.47,0,0,0,0,0,0-.7,2.21-2.55,3.55-4.16,5l0-.46c-.08-.8-.16-1.6-.25-2.4a19.28,19.28,0,0,0,2.78-2.56,6.37,6.37,0,0,0,1.54-2.17c0-.05-.06-.08-.08,0-.67,1.77-2.76,3.23-4.27,4.41-.09-.8-.18-1.61-.26-2.42,1.6-1.62,3.66-2.81,4.3-5.17a.05.05,0,1,0-.1,0c-.73,2.18-2.71,3.3-4.24,4.82-.05-.5-.11-1-.16-1.5a11.69,11.69,0,0,0,4.41-5.69.1.1,0,0,0-.18-.06,11.75,11.75,0,0,1-4.26,5.35q-.12-1.22-.21-2.43a.22.22,0,0,0,0-.08,12,12,0,0,0,2.26-2.06,7.38,7.38,0,0,0,1.89-2.86.1.1,0,0,0-.19-.06c-.5,1.85-2.37,3.48-4,4.54,0-.29,0-.59-.05-.89s0-.89-.07-1.34c.6-.68,1.47-1.16,2.07-1.87a14.48,14.48,0,0,0,1.33-2,.06.06,0,1,0-.1-.06,11.77,11.77,0,0,1-1.94,2.44c-.43.4-1,.7-1.38,1.12,0-.73-.06-1.46-.1-2.19h.05a.14.14,0,0,0,.11-.07,5.58,5.58,0,0,0,2-2.44s0,0,0,0a6.82,6.82,0,0,1-2,2.25h-.08c0-.6-.07-1.19-.12-1.78a.13.13,0,0,0,.08-.17,11.11,11.11,0,0,0,1.13-1.61s0-.08-.06,0a8.74,8.74,0,0,1-1.19,1.38,34.41,34.41,0,0,0-.5-3.63c0-.12-.19-.08-.17,0,.18,1.17.3,2.34.39,3.52a10.67,10.67,0,0,1-2.06-1.9,0,0,0,0,0-.07,0,7,7,0,0,0,1.08,1.23,10.57,10.57,0,0,0,1.08,1c.05.63.08,1.27.11,1.9a3.47,3.47,0,0,1-2-.25,3.37,3.37,0,0,1-1.7-2c0-.1-.21-.06-.17,0a3.87,3.87,0,0,0,1.53,2,3.63,3.63,0,0,0,2.35.49c0,.74.06,1.47.08,2.21a15.75,15.75,0,0,1-2-.84,23.16,23.16,0,0,1-2.75-1.79.09.09,0,0,0-.1.15,25.62,25.62,0,0,0,2.59,1.76,12.33,12.33,0,0,0,2.3,1v.12l0,0a.11.11,0,0,0,0,.16c0,.71,0,1.41.07,2.11v.13c-1.73-.31-4.36-1-5-2.71a.13.13,0,1,0-.23.11c1,1.92,3.45,2.26,5.27,3,0,.79.09,1.59.16,2.38a9.4,9.4,0,0,1-3.17-.74A6.43,6.43,0,0,1,163,117a0,0,0,1,0,0,0,6.37,6.37,0,0,0,2.56,1.72,7.88,7.88,0,0,0,3.43,1.08.19.19,0,0,0,0,.1c0,.5.08,1,.13,1.5a8.88,8.88,0,0,1-6.25-1.62h0a6.37,6.37,0,0,0,3.35,1.58,7.91,7.91,0,0,0,2.94.29c.09.93.18,1.86.28,2.78-.9-.1-1.8,0-2.7-.14a6.38,6.38,0,0,1-3.44-1.7c-.06,0-.15,0-.09.09,1.83,1.74,3.86,1.88,6.26,2.1.07.76.15,1.52.21,2.28-1.89.11-4.5-.4-5.81-1.73-.09-.1-.25,0-.15.14a6,6,0,0,0,3.12,1.49,7.89,7.89,0,0,0,2.86.39v.08c.09,1.09.14,2.19.18,3.29-2.14,0-3.81-1.16-5.63-2.18a.11.11,0,1,0-.12.19c1.86,1.09,3.56,2.3,5.77,2.32,0,.89,0,1.79,0,2.68a9.5,9.5,0,0,1-5.3-2c-.11-.08-.21.09-.11.17a10.27,10.27,0,0,0,5.41,2.13c0,1,0,1.93,0,2.89a6.87,6.87,0,0,1-4.9-1.7s-.08,0,0,.06c1.3,1.09,3.15,2.27,4.94,2v.92c0,.19,0,.38,0,.57a10.34,10.34,0,0,1-4.1-.84s-.06,0,0,.06a9.88,9.88,0,0,0,4.13,1.06c0,.58,0,1.18,0,1.79a8.17,8.17,0,0,0-1.12-.18,7.37,7.37,0,0,1-1.9-.54c-.07,0-.11.07,0,.09a7.19,7.19,0,0,0,1.68.61c.46,0,.92.16,1.38.24a18.51,18.51,0,0,0,.87,7c.18.46,1,.39,1-.15A40.17,40.17,0,0,0,171,143Z"/><polygon class="cls-36" points="179.24 145.02 179.01 149.34 178.64 156.06 178.04 167.11 163.08 167.11 162.48 156.06 162.11 149.34 161.88 145.02 179.24 145.02"/><polygon class="cls-31" points="179.01 149.34 178.96 150.2 178.91 151.1 178.64 156.06 162.48 156.06 162.21 151.1 162.16 150.2 162.11 149.34 179.01 149.34"/><polygon class="cls-36" points="178.96 150.2 178.91 151.1 162.21 151.1 162.16 150.2 178.96 150.2"/></g></g></g></svg>